# 3ds Max Wavefront OBJ Exporter v0.97b - (c)2007 guruware
# File Created: 04.09.2012 15:01:44

mtllib part.mtl

#
# object Box01
#

v  -150.0000 0.0000 109.5000
v  -150.0000 0.0000 -109.5000
v  150.0000 0.0000 -109.5000
v  150.0000 0.0000 109.5000
v  -150.0000 1.0000 109.5000
v  150.0000 1.0000 109.5000
v  150.0000 1.0000 -109.5000
v  -150.0000 1.0000 -109.5000
# 8 vertices

vn 0.0000 -1.0000 -0.0000
vn 0.0000 1.0000 -0.0000
vn 0.0000 0.0000 1.0000
vn 1.0000 0.0000 -0.0000
vn 0.0000 0.0000 -1.0000
vn -1.0000 0.0000 -0.0000
# 6 vertex normals

vt 1.0000 0.0000 0.0000
vt 1.0000 1.0000 0.0000
vt 0.0000 1.0000 0.0000
vt 0.0000 0.0000 0.0000
# 4 texture coords

g Box01
usemtl 01___Default
s 2
f 1/1/1 2/2/1 3/3/1 4/4/1 
s 4
f 5/4/2 6/1/2 7/2/2 8/3/2 
s 8
f 1/4/3 4/1/3 6/2/3 5/3/3 
s 16
f 4/4/4 3/1/4 7/2/4 6/3/4 
s 32
f 3/4/5 2/1/5 8/2/5 7/3/5 
s 64
f 2/4/6 1/1/6 5/2/6 8/3/6 
# 6 polygons

#
# object Box02
#

v  -150.0000 1.0253 -107.2314
v  -150.0000 220.0253 -107.2313
v  150.0000 220.0253 -107.2313
v  150.0000 1.0253 -107.2314
v  -150.0000 1.0253 -106.2314
v  150.0000 1.0253 -106.2314
v  150.0000 220.0253 -106.2313
v  -150.0000 220.0253 -106.2313
# 8 vertices

vn 0.0000 0.0000 -1.0000
vn 0.0000 -0.0000 1.0000
vn 0.0000 -1.0000 -0.0000
vn 1.0000 0.0000 -0.0000
vn 0.0000 1.0000 0.0000
vn -1.0000 0.0000 -0.0000
# 6 vertex normals

vt 1.0000 0.0000 0.0000
vt 1.0000 1.0000 0.0000
vt 0.0000 1.0000 0.0000
vt 0.0000 0.0000 0.0000
# 4 texture coords

g Box02
usemtl 01___Default
s 2
f 9/5/7 10/6/7 11/7/7 12/8/7 
s 4
f 13/8/8 14/5/8 15/6/8 16/7/8 
s 8
f 9/8/9 12/5/9 14/6/9 13/7/9 
s 16
f 12/8/10 11/5/10 15/6/10 14/7/10 
s 32
f 11/8/11 10/5/11 16/6/11 15/7/11 
s 64
f 10/8/12 9/5/12 13/6/12 16/7/12 
# 6 polygons

#
# object Box03
#

v  -149.0955 -43.4466 60.4727
v  -149.0954 175.5534 60.4727
v  -149.0955 175.5534 -239.5273
v  -149.0955 -43.4466 -239.5273
v  -148.0955 -43.4466 60.4727
v  -148.0955 -43.4466 -239.5273
v  -148.0955 175.5534 -239.5273
v  -148.0954 175.5534 60.4727
# 8 vertices

vn -1.0000 0.0000 0.0000
vn 1.0000 -0.0000 -0.0000
vn -0.0000 -1.0000 0.0000
vn -0.0000 0.0000 -1.0000
vn 0.0000 1.0000 -0.0000
vn 0.0000 0.0000 1.0000
# 6 vertex normals

vt 1.0000 0.0000 0.0000
vt 1.0000 1.0000 0.0000
vt 0.0000 1.0000 0.0000
vt 0.0000 0.0000 0.0000
# 4 texture coords

g Box03
usemtl 01___Default
s 2
f 17/9/13 18/10/13 19/11/13 20/12/13 
s 4
f 21/12/14 22/9/14 23/10/14 24/11/14 
s 8
f 17/12/15 20/9/15 22/10/15 21/11/15 
s 16
f 20/12/16 19/9/16 23/10/16 22/11/16 
s 32
f 19/12/17 18/9/17 24/10/17 23/11/17 
s 64
f 18/12/18 17/9/18 21/10/18 24/11/18 
# 6 polygons

#
# object Box04
#

v  -49.9001 32.4009 -18.3560
v  -49.8349 32.0114 -25.5807
v  -49.8839 36.9812 -25.5807
v  -49.9490 35.8056 -21.4125
v  -73.9849 20.6378 -25.0688
v  -74.0321 21.3861 -22.0666
v  -90.8896 24.2997 -25.0484
v  -74.0192 31.0097 -25.0688
v  -73.9837 28.3412 -25.0688
v  -74.0665 30.3023 -21.9325
v  -74.0310 28.5756 -20.0558
v  -49.9711 28.6258 -17.0461
v  -49.9060 28.5089 -25.5807
v  -74.0353 25.5699 -25.0688
v  -74.0825 25.6403 -19.2515
v  -73.9439 23.3135 -25.0688
v  -49.8453 24.5463 -18.4106
v  -49.7802 24.7587 -25.5807
v  -73.9912 23.1857 -20.0893
v  -49.9017 21.0517 -21.6308
v  -49.8366 20.3117 -25.5807
v  -63.6630 33.9658 -25.0707
v  -63.6140 29.8473 -25.0707
v  -63.7281 32.9916 -21.5457
v  -63.6792 30.1701 -18.9609
v  -63.6156 20.1517 -25.0707
v  -63.6808 20.7650 -21.7303
v  -63.7502 27.0416 -17.8531
v  -63.6851 26.9447 -25.0707
v  -63.5592 23.8370 -25.0707
v  -63.6244 23.6609 -19.0070
# 31 vertices

vn 0.9997 0.0185 0.0140
vn 0.9999 0.0099 0.0085
vn 0.9998 0.0162 0.0125
vn 0.9989 0.0380 0.0263
vn -0.2056 -0.9503 0.2336
vn -0.0012 -0.0000 -1.0000
vn -0.3619 0.9105 0.1999
vn -0.3612 0.6828 0.6351
vn 0.9998 -0.0179 0.0088
vn -0.0012 0.0000 -1.0000
vn -0.3334 0.2546 0.9078
vn 0.9995 0.0306 0.0085
vn -0.2862 -0.3190 0.9035
vn 0.9997 -0.0193 0.0126
vn -0.2397 -0.7155 0.6562
vn -0.0002 -0.0000 -1.0000
vn -0.2600 0.9373 0.2322
vn -0.1922 0.6854 0.7024
vn -0.0555 -0.9764 0.2086
vn -0.1569 0.2999 0.9410
vn -0.0002 0.0000 -1.0000
vn -0.0835 -0.3247 0.9421
vn -0.0533 -0.7059 0.7063
vn -0.0369 -0.0004 -0.9993
vn -0.1964 0.9452 0.2608
vn -0.1411 0.6635 0.7347
vn -0.0939 0.3308 0.9390
vn -0.0371 0.0008 -0.9993
vn -0.0195 -0.3204 0.9471
vn -0.0369 -0.0014 -0.9993
vn 0.0105 -0.6811 0.7321
vn 0.0187 -0.9830 0.1828
vn -0.0370 0.0005 -0.9993
# 33 vertex normals

vt 0.0000 0.0000 0.0000
vt 1.0000 0.0000 0.0000
vt 1.0000 1.0000 0.0000
vt 0.0000 1.0000 0.0000
# 4 texture coords

g Box04
usemtl 02___Default
s 4
f 25/13/19 26/14/20 27/15/21 28/16/22 
s 8
f 29/15/23 30/16/23 31/13/23 
s 16
f 32/15/24 33/16/24 31/13/24 
s 32
f 34/15/25 32/16/25 31/13/25 
s 64
f 35/15/26 34/16/26 31/13/26 
s off
f 26/15/27 25/16/27 36/16/27 37/15/27 
f 31/14/28 33/15/28 38/15/28 
f 31/13/29 39/16/29 35/16/29 
f 31/14/24 38/15/24 40/15/24 
f 37/15/30 36/16/30 41/16/30 42/15/30 
f 31/13/31 43/16/31 39/16/31 
f 31/14/28 40/15/28 29/15/28 
f 42/15/32 41/16/32 44/16/32 45/15/32 
f 31/13/33 30/16/33 43/16/33 
f 33/14/34 32/15/34 46/15/34 47/14/34 
f 32/15/35 34/16/35 48/16/35 46/15/35 
f 34/16/36 35/13/36 49/13/36 48/16/36 
f 30/16/37 29/15/37 50/15/37 51/16/37 
f 35/16/38 39/16/38 52/16/38 49/16/38 
f 38/15/39 33/15/39 47/15/39 53/15/39 
f 40/15/34 38/15/34 53/15/34 54/15/34 
f 39/16/40 43/16/40 55/16/40 52/16/40 
f 29/15/39 40/15/39 54/15/39 50/15/39 
f 43/16/41 30/16/41 51/16/41 55/16/41 
f 47/14/42 46/15/42 27/15/42 26/14/42 
f 46/15/43 48/16/43 28/16/43 27/15/43 
f 48/16/44 49/13/44 25/13/44 28/16/44 
f 49/16/45 52/16/45 36/16/45 25/16/45 
f 53/15/46 47/15/46 26/15/46 37/15/46 
f 52/16/47 55/16/47 41/16/47 36/16/47 
f 54/15/48 53/15/48 37/15/48 42/15/48 
f 55/16/49 51/16/49 44/16/49 41/16/49 
f 51/16/50 50/15/50 45/15/50 44/16/50 
f 50/15/51 54/15/51 42/15/51 45/15/51 
# 24 polygons - 10 triangles

